<svg xmlns="http://www.w3.org/2000/svg" viewBox="0 0 2000 1526.21"><defs><style>.cls-1{fill:#c6554a;}</style></defs><title>Asset 1</title><g id="Layer_2" data-name="Layer 2"><g id="Layer_1-2" data-name="Layer 1"><path class="cls-1" d="M1283,1027.89a38.46,38.46,0,0,0-38.46,38.46v199.54c0,101.13-82.28,183.4-183.4,183.4H260.32c-101.13,0-183.4-82.27-183.4-183.4V260.32c0-101.13,82.27-183.4,183.4-183.4H1061.1c101.12,0,183.4,82.27,183.4,183.4V471.67a38.46,38.46,0,0,0,76.92,0V260.32C1321.42,116.78,1204.64,0,1061.1,0H260.32C116.78,0,0,116.78,0,260.32V1265.89c0,143.54,116.78,260.32,260.32,260.32H1061.1c143.54,0,260.32-116.78,260.32-260.32V1066.35A38.46,38.46,0,0,0,1283,1027.89Z"/><path class="cls-1" d="M2000,762h0c0-1.26-.07-2.52-.19-3.78-.06-.58-.17-1.13-.25-1.7s-.17-1.35-.31-2-.3-1.28-.46-1.91-.28-1.17-.45-1.74-.42-1.23-.64-1.84-.4-1.15-.63-1.71-.51-1.12-.78-1.68-.53-1.17-.83-1.74-.61-1-.92-1.55-.65-1.13-1-1.67-.81-1.12-1.22-1.67-.65-.91-1-1.36a37.72,37.72,0,0,0-2.55-2.82L1597.64,343.73a38.46,38.46,0,0,0-54.39,54.39l325.43,325.44H927.31a38.46,38.46,0,1,0,0,76.92h943.54l-327.6,327.6a38.46,38.46,0,0,0,54.39,54.4l391.09-391.09A38.34,38.34,0,0,0,2000,763.11C2000,762.74,2000,762.38,2000,762Z"/></g></g></svg>