<svg xmlns="http://www.w3.org/2000/svg" viewBox="0 0 2032.58 2189.03"><defs><style>.cls-1{fill:#fff;}</style></defs><title>swaparrows</title><g id="Layer_2" data-name="Layer 2"><g id="Line"><path class="cls-1" d="M1220.89,2183.06a78.15,78.15,0,0,1-48.25-72.22V78.26a78.18,78.18,0,1,1,156.35,0V1922.12L1899.13,1352a78.17,78.17,0,0,1,110.55,110.55l-703.59,703.58A78.12,78.12,0,0,1,1220.89,2183.06Z"/><path class="cls-1" d="M781.76,2189a78.16,78.16,0,0,1-78.18-78.18V267L133.45,837.12A78.17,78.17,0,0,1,22.9,726.57L726.49,23A78.17,78.17,0,0,1,859.94,78.26V2110.84A78.16,78.16,0,0,1,781.76,2189Z"/></g></g></svg>