<svg xmlns="http://www.w3.org/2000/svg" viewBox="0 0 3445.99 3123.45"><defs><style>.cls-1{fill:#a7bd03;fill-rule:evenodd;}</style></defs><title>kiwi-logo</title><g id="Layer_2" data-name="Layer 2"><g id="Layer_1-2" data-name="Layer 1"><g id="Layer_1-2-2" data-name="Layer 1-2"><path class="cls-1" d="M759.5,675.57c66-122.58,335.63-339.12,477-424.79,681-412.69,1604.92-300.57,1990.88,222.71,283.12,383.72,291.12,1020.33,24.75,1414.84C2923,2375.79,2752,2007.07,2800.64,2553.79c8.93,100.53,14.58,104.72,72.58,151.72,59.13,48,159,165.12,139.81,293.71-32.27-20-223.17-290.28-404.86-183.28-49.2,28.94-92.62,103.2-165.45,154.63-90.89,64.3-149.79,150.84-153,145.15-1.6-2.76-6.53,5.4-10,7.73-17-187.12,105.89-235.1,162.28-345.68-48.74,7.28-129.67,25.64-178,42.45-53.22,18.45-99.59,57.6-150.11,61.19,35.51-88.46,120.11-147.46,230.67-187,192.38-68.8,254.73-8.64,284.52-119.8,85.9-320.23-72.94-351.16-136.1-434.88-30.71-40.7-43.94-75.91-76.79-119.76-239.47,77.27-236.2,78.48-250.63,193-18.2,144.81,19.79,295.75,4.87,411.08-65.35,63.58-100.61,63.58-172.48,149.92-25.54,30.69-46.69,46.91-74.15,84.41-22.56,30.84-28.07,62.19-56.68,81.19-15-81.19,4.69-128.54,20.57-200.76-92.11,31.38-148.8,68.57-256.51,82.18-226.06,28.55-154,42.07-261,65.07,54.44-140.5,326.92-153.12,414.92-247.43-90-58.74-166.4-16.59-265.25-33,111.84-132.43,307.7-23.21,432.7-78.86,82.52-47.79,67.09-324.3,68.89-402.3C1908.14,2050,1838.5,2011.21,1788,1856.1c-58.13-178.42,3-255.06-136-359.56-248.26-186.78-387.37,92-811.72-33.56-190.88-56.48-261.49,24.67-353.54,119.75C94.19,1988.19,84.3,2523.22,14.3,2596.94a58.16,58.16,0,0,1-5.83-10.64C-8,2483,1.7,2364.17,19.52,2266,73.08,1971,148.6,1720.07,261.3,1443.7c73.84-181,13.47-86.06-10.05-262-14.46-108.06,2.37-219.12,43.76-301.68,101.93-203.5,187.28-215.5,464.43-204.5ZM559.61,1081.71a80.08,80.08,0,1,0,80.12,80.08,80.09,80.09,0,0,0-80.12-80.08Z"/></g></g></g></svg>